HIERARCHY
ROOT Hips
{
  OFFSET 273.855 97.3773 561.785
  CHANNELS 6 Xposition Yposition Zposition Zrotation Xrotation Yrotation
  JOINT RightUpLeg
  {
    OFFSET -8.9458 -8.66707 0.101652
    CHANNELS 3 Zrotation Xrotation Yrotation
    JOINT RightLeg
    {
      OFFSET 0 -44.4227 1.3727
      CHANNELS 3 Zrotation Xrotation Yrotation
      JOINT RightFoot
      {
        OFFSET 0.253549 -42.0924 -1.46059
        CHANNELS 3 Zrotation Xrotation Yrotation
        JOINT RightToes
        {
          OFFSET 0.04 -4.41509 8.4991
          CHANNELS 3 Zrotation Xrotation Yrotation
          End Site
          {
            OFFSET -0.08 -0.137448 9.77979
          }
        }
      }
    }
  }
  JOINT Spine
  {
    OFFSET 0 11.8905 0
    CHANNELS 3 Zrotation Xrotation Yrotation
    JOINT Spine1
    {
      OFFSET 0 25.6574 0.127663
      CHANNELS 3 Zrotation Xrotation Yrotation
      JOINT HEad
      {
        OFFSET 0 8.73416 0.011341
        CHANNELS 3 Zrotation Xrotation Yrotation
        End Site
        {
          OFFSET -0.29 12.7742 2.51395
        }
      }
      JOINT LeftShoulder1
      {
        OFFSET 8.99 -0.362252 -0.22
        CHANNELS 3 Zrotation Xrotation Yrotation
        JOINT LeftArm
        {
          OFFSET 10.2827 -0.00338 0.322123
          CHANNELS 3 Zrotation Xrotation Yrotation
          JOINT LeftForeArm
          {
            OFFSET 32.7669 0.099144 -1.42434
            CHANNELS 3 Zrotation Xrotation Yrotation
            JOINT LeftHand
            {
              OFFSET 27.5643 0.085362 1.02216
              CHANNELS 3 Zrotation Xrotation Yrotation
              End Site
              {
                OFFSET 16.7443 -0.6 1.50291
              }
            }
          }
        }
      }
      JOINT RightShoulder
      {
        OFFSET -8.99 -0.362252 -0.22
        CHANNELS 3 Zrotation Xrotation Yrotation
        JOINT RightArm
        {
          OFFSET -10.2827 -0.00338 0.322123
          CHANNELS 3 Zrotation Xrotation Yrotation
          JOINT RightForeArm
          {
            OFFSET -32.8971 0.099144 -1.42434
            CHANNELS 3 Zrotation Xrotation Yrotation
            JOINT RightHand
            {
              OFFSET -27.4921 0.085362 1.02216
              CHANNELS 3 Zrotation Xrotation Yrotation
              End Site
              {
                OFFSET -16.6312 -0.6 1.50291
              }
            }
          }
        }
      }
    }
  }
  JOINT LeftUpLeg
  {
    OFFSET 8.9458 -8.66707 0.101652
    CHANNELS 3 Zrotation Xrotation Yrotation
    JOINT LeftLeg
    {
      OFFSET 0 -44.4227 1.3727
      CHANNELS 3 Zrotation Xrotation Yrotation
      JOINT LeftFoot
      {
        OFFSET -0.253549 -42.0924 -1.46059
        CHANNELS 3 Zrotation Xrotation Yrotation
        JOINT LeftToes
        {
          OFFSET -0.04 -4.41509 8.4991
          CHANNELS 3 Zrotation Xrotation Yrotation
          End Site
          {
            OFFSET 0.08 -0.047448 9.77979
          }
        }
      }
    }
  }
}
MOTION
Frames:	16
Frame Time:	0.0166667
264.222 97.1415 557.446 -10.1606 9.81385 -131.436 -15.4032 -14.1471 0.277866 15.246 61.8531 -15.6494 1.85177 1.17868 -0.193371 0.0462048 0.000533403 0.662642 12.5248 16.7896 -6.89613 -0.0267385 0.000717785 0.0122808 -22.0603 23.3354 27.6419 7.95139e-016 -1.59028e-015 -6.36111e-015 -160.814 -72.0966 -158.772 -68.3126 64.7293 -55.526 5.77722 21.7772 -0.848515 31.5521 7.11132 6.27102 58.35 -30.5049 65.1209 34.364 63.1251 98.8987 0.29104 17.6903 -1.18921 16.157 -15.7753 -5.42967 -9.61211 35.8566 19.8819 -17.0845 -3.50823 -1.23442 -1.18447e-009 1.5602e-007 -4.87132e-009 
264.719 96.7835 557.433 -9.98408 9.51636 -131.425 -15.7164 -15.8375 -0.873845 5.97076 67.9379 -4.92784 6.30071 1.76954 -0.108203 0.0462048 0.000533403 0.662642 15.0379 15.6642 -6.82479 -0.0287972 0.00205232 0.0134274 -27.607 27.0771 33.1008 3.18055e-015 0 -3.18055e-015 172.987 -71.4016 174.73 -75.9935 64.418 -54.9502 12.177 13.8355 -0.753797 29.3234 7.77758 6.44137 57.192 -30.3781 64.6986 34.6315 63.2519 97.0949 -2.28686 17.4127 0.197673 15.3938 -18.2563 -0.0153193 -2.83604 39.1613 6.56388 -18.1208 -3.37084 -1.21006 -1.18446e-009 1.5602e-007 -4.87131e-009 
265.375 96.3016 557.319 -9.79616 9.05123 -131.326 -15.6288 -16.2428 -1.02224 0.917695 69.5899 1.29584 8.86835 2.00577 -0.213809 0.0462048 0.000533403 0.662642 16.9842 14.6134 -6.54032 -0.0283807 0.00318245 0.0142092 -32.6795 30.1108 38.1619 -4.77083e-015 0 6.36111e-015 149.511 -73.0603 151.834 -80.3907 64.2136 -54.1959 10.2483 14.6153 -0.0407185 27.5184 8.37759 6.80131 56.4289 -30.0591 64.4252 35.3242 63.0081 94.2763 -2.97677 17.0557 -0.222589 14.8348 -20.4735 4.99619 3.69282 40.8223 -5.52238 -18.7178 -3.11108 -1.13883 -1.18447e-009 1.5602e-007 -4.87132e-009 
266.187 95.7416 557.107 -9.53933 8.44341 -131.174 -15.1776 -15.4558 -0.434403 -8.56349 69.8459 12.4118 10.9331 2.1707 -0.208824 0.0462048 0.000533403 0.662642 18.4492 13.6218 -6.03577 -0.0265578 0.00417748 0.0145967 -37.1631 32.4969 42.7088 2.64834e-031 4.77083e-015 -3.18055e-015 126.099 -72.6658 132.801 -81.7722 62.1891 -54.3465 12.0101 13.4363 -4.80036 26.0131 8.89544 7.2494 56.1725 -29.499 64.4248 36.2585 62.4578 90.6632 -4.25161 16.7103 0.868997 14.4666 -22.4535 9.62781 9.52823 41.3321 -16.0209 -18.9673 -2.86388 -1.06469 -1.18447e-009 1.5602e-007 -4.87131e-009 
267.226 95.2734 556.847 -9.15347 7.73394 -131.025 -14.1683 -13.4004 0.632883 -17.3848 66.37 24.8495 9.4035 2.20262 -0.177939 0.0462048 0.000533403 0.662642 19.4996 12.6935 -5.29566 -0.0243974 0.0051067 0.0145604 -40.9121 34.2979 46.638 -1.59028e-015 0 3.18055e-015 111.841 -71.8819 121.902 -82.4031 60.934 -54.672 9.75037 16.4358 -6.98056 24.6984 9.28102 7.71874 56.4926 -28.6732 64.7978 37.3151 61.6164 86.5654 -4.53145 16.4919 1.18345 14.3112 -24.1412 13.9055 14.342 40.7757 -24.6806 -18.9506 -2.55288 -0.985852 -1.18446e-009 1.5602e-007 -4.87132e-009 
268.567 94.9061 556.533 -8.59315 6.96689 -130.905 -13.7364 -10.0948 2.37011 -18.28 60.1033 27.9644 14.1858 1.62368 -0.115964 0.0462048 0.000533403 0.662642 20.2221 11.8435 -4.33469 -0.0229685 0.00603939 0.0140708 -43.8167 35.5662 49.8323 -4.77083e-015 0 -3.18055e-015 103.053 -71.3457 115.721 -82.5504 60.0369 -55.2432 10.7304 15.5771 -8.39157 23.5099 9.55217 8.25713 57.5103 -27.4814 65.5399 47.375 59.6547 76.3396 -3.74552 20.8706 -0.282713 14.4861 -25.6976 17.8162 18.0567 39.564 -31.5461 -18.8261 -2.27992 -0.934484 -1.18447e-009 1.5602e-007 -4.87131e-009 
270.14 94.7483 556.215 -7.87938 6.19219 -130.839 -13.0084 -5.89277 4.23914 -16.2981 52.7826 26.138 12.3818 1.30841 -0.00837096 0.0462048 0.000533403 0.662642 20.6716 11.1258 -3.19064 -0.0223088 0.00679946 0.0122609 -44.8937 35.0603 51.2786 1.59028e-015 0 6.36111e-015 97.8723 -71.0629 112.647 -82.7428 59.4383 -55.6769 9.37372 17.2046 -8.60459 22.433 9.75297 8.6678 59.1146 -25.9145 66.7082 51.8692 57.6851 69.6706 -3.36503 23.2911 -0.494257 14.9243 -27.009 21.3511 20.5915 37.7312 -36.6472 -18.609 -2.01045 -0.907144 -1.18446e-009 1.5602e-007 -4.87132e-009 
272.006 94.6429 555.901 -7.05892 5.45505 -130.832 -12.8155 -1.9619 6.04392 -14.1162 45.4151 22.6001 14.0478 0.686109 0.0492736 0.0462048 0.000533403 0.662642 20.4381 11.6915 -1.22456 -0.0591424 0.0942875 0.0564557 -43.0012 32.6314 49.552 4.77083e-015 -1.59028e-015 -9.54166e-015 99.3881 -71.464 115.64 -83.1071 59.0272 -55.9521 9.81772 16.5075 -8.74025 21.8721 8.53425 8.446 61.2521 -23.8685 68.2507 53.4153 56.184 65.1874 -3.30352 24.0564 0.0639384 16.0478 -28.3351 23.5736 21.173 36.3249 -39.1709 -18.339 -1.84559 -0.89781 -1.18446e-009 1.5602e-007 -4.87132e-009 
274.096 94.5734 555.602 -6.19118 4.79074 -130.875 -12.5896 1.60279 7.61262 -12.2467 38.5381 18.2165 12.8503 -0.00845153 0.197481 0.0462048 0.000533403 0.662642 20.0551 12.2201 0.661472 -0.0158303 -0.00101005 0.00137034 -40.6502 28.8674 47.1936 -3.18055e-015 -3.18055e-015 -6.36111e-015 101.454 -71.8071 119.143 -83.7912 58.8299 -55.9281 8.86366 17.2483 -8.34783 21.3687 7.72717 7.91205 63.4069 -21.5337 69.7215 53.4771 55.6195 61.9222 -2.96309 24.3631 0.357825 17.5077 -29.5686 24.5239 20.2936 35.273 -39.5359 -17.9595 -1.74298 -0.892918 -1.18446e-009 1.5602e-007 -4.87132e-009 
276.367 94.4236 555.25 -5.33538 4.22441 -130.935 -12.6905 4.67876 9.0396 -9.12656 33.6533 11.9292 12.51 -0.640159 0.246255 0.0462048 0.000533403 0.662642 19.5473 12.7316 2.3948 -0.011791 -0.00500984 -0.00312994 -38.5518 25.2165 45.0541 8.82781e-032 1.59028e-015 -3.18055e-015 104.629 -72.0885 123.732 -84.8989 58.7928 -55.5503 8.95924 16.5764 -8.05026 21.1258 7.02997 7.29522 65.4209 -19.0805 71.1469 52.578 55.3882 59.1112 -3.32698 23.7683 0.29873 19.0825 -30.7975 24.212 18.5656 34.6631 -38.2371 -17.5127 -1.79392 -0.895107 -1.18446e-009 1.5602e-007 -4.87132e-009 
278.739 94.2648 554.852 -4.59976 3.77124 -130.974 -12.792 7.24147 10.2141 -5.1537 29.9923 5.42709 8.52829 -1.36094 0.225306 0.0462048 0.000533403 0.662642 18.904 13.261 3.90184 -0.011791 -0.00500984 -0.00312994 -36.7697 21.7974 43.2373 -0 0 3.18055e-015 108.296 -72.2507 128.814 -86.4889 58.87 -54.7442 8.24789 16.8791 -7.562 21.1584 6.43137 6.70786 67.0611 -16.8356 72.3024 51.2458 55.2944 56.9135 -3.81661 23.2427 1.31725 20.4447 -31.6805 23.7184 16.8775 33.7572 -36.7073 -16.9508 -1.91811 -0.898209 -1.18446e-009 1.5602e-007 -4.87132e-009 
281.116 94.0525 554.404 -3.99787 3.43267 -130.964 -13.4547 9.2727 11.3624 -0.54983 26.6915 -0.230539 8.45034 -1.69931 0.206156 0.0462048 0.000533403 0.662642 18.1713 13.7869 5.13337 -0.011791 -0.00500984 -0.00312994 -35.3063 18.7109 41.751 -3.18055e-015 0 -3.18055e-015 112.427 -72.3502 134.415 -93.1039 54.6864 -50.1959 6.23619 21.4288 -7.24719 21.2483 5.89201 6.10477 68.5438 -14.8381 73.2285 49.7863 55.2316 55.3185 -4.33504 22.4273 1.72344 21.5852 -32.276 23.0253 15.3547 32.6988 -35.058 -16.2526 -2.12015 -0.896981 -1.18446e-009 1.5602e-007 -4.87132e-009 
283.382 93.8608 553.921 -3.53691 3.21537 -130.889 -14.0944 10.8022 12.2602 4.09866 23.9209 -4.46393 4.88749 -2.12999 0.12369 0.0462048 0.000533403 0.662642 17.4256 14.2631 6.05747 -0.011791 -0.00500984 -0.00312994 -34.1557 16.0766 40.5981 3.18055e-015 0 -0 117.004 -72.4046 140.354 -97.0916 52.6448 -47.3563 4.70388 24.3487 -6.81939 21.3284 5.306 5.16308 69.7293 -13.4225 73.8658 48.9779 55.1013 55.6313 -6.39695 22.5227 4.87233 22.4521 -32.5061 22.1224 13.9586 31.5052 -33.2377 -15.3381 -2.3339 -0.882705 -1.18446e-009 1.5602e-007 -4.87132e-009 
285.573 93.7676 553.425 -3.21966 3.1061 -130.754 -15.0738 11.9442 13.0887 8.29495 21.3822 -6.8734 4.5305 -2.28183 0.115397 0.0462048 0.000533403 0.662642 16.666 14.6872 6.69724 -0.011791 -0.00500984 -0.00312994 -33.1805 13.8901 39.7034 3.18055e-015 -3.18055e-015 3.18055e-015 121.847 -72.4896 146.314 -99.5435 51.8332 -45.3986 4.27189 25.3493 -6.43672 21.4267 4.8718 4.2627 70.7003 -12.6668 74.2444 48.638 55.0028 56.7605 -5.74717 21.9722 3.05351 23.0919 -32.4331 21.0404 12.626 30.3696 -31.1833 -14.0956 -2.58204 -0.847903 -1.18446e-009 1.5602e-007 -4.87132e-009 
287.644 93.7465 552.993 -3.01479 3.08818 -130.611 -15.4949 11.8573 13.0387 10.8925 18.9834 -7.55907 1.85344 -2.72354 0.100326 0.0462048 0.000533403 0.662642 15.8954 15.0492 7.13595 -0.011791 -0.00500984 -0.00312994 -32.3421 12.1812 39.0219 3.18055e-015 -1.59028e-015 -0 126.834 -72.6065 152.119 -100.964 51.6871 -44.0098 3.84629 25.9565 -5.98051 21.6118 4.55337 3.61846 71.4073 -12.5088 74.3249 48.5967 54.9328 58.3196 -6.39878 22.0206 3.91237 23.6479 -32.1749 19.9286 10.8601 30.3543 -26.8891 -11.7265 -2.82021 -0.745157 -1.18447e-009 1.5602e-007 -4.87131e-009 
289.546 93.8361 552.589 -2.89558 3.13873 -130.498 -15.7461 11.198 12.4155 12.1815 18.2136 -6.17887 3.87366 -2.65131 0.120922 0.0462048 0.000533403 0.662642 15.1108 15.3432 7.43693 -0.011791 -0.00500984 -0.00312994 -32.1193 12.3477 38.2603 0 0 -0 131.781 -72.7257 157.576 -101.538 51.8904 -43.1679 3.98299 25.9749 -5.66126 21.8146 4.32231 3.1619 71.9359 -12.614 74.2439 48.66 54.8916 59.9042 -5.50346 21.8629 2.07502 24.2195 -31.8601 18.9167 8.66645 31.0397 -20.884 -8.5742 -3.08894 -0.557458 -1.18446e-009 1.5602e-007 -4.87131e-009 
